walking_02
version=1
nRows=22
nColumns=46
inDegrees=yes
endheader
time	ground_force3_vx	ground_force3_vy	ground_force3_vz	ground_force3_px	ground_force3_py	ground_force3_pz	ground_torque3_x	ground_torque3_y	ground_torque3_z	ground_force5_vx	ground_force5_vy	ground_force5_vz	ground_force5_px	ground_force5_py	ground_force5_pz	ground_torque5_x	ground_torque5_y	ground_torque5_z	ground_force4_vx	ground_force4_vy	ground_force4_vz	ground_force4_px	ground_force4_py	ground_force4_pz	ground_torque4_x	ground_torque4_y	ground_torque4_z	ground_force1_vx	ground_force1_vy	ground_force1_vz	ground_force1_px	ground_force1_py	ground_force1_pz	ground_torque1_x	ground_torque1_y	ground_torque1_z	ground_force2_vx	ground_force2_vy	ground_force2_vz	ground_force2_px	ground_force2_py	ground_force2_pz	ground_torque2_x	ground_torque2_y	ground_torque2_z
3.250000	-22.387632	514.731262	-16.751884	0.333684	0.000000	-0.151225	0.000004	-1.979513	0.000007	-0.000000	-0.000000	0.000000	0.200000	0.000000	-1.504000	0.000000	0.000000	-0.000000	-0.000000	-0.000000	0.000000	0.200000	0.000000	-0.902000	0.000000	0.000000	-0.000000	-0.000000	-0.000000	0.000000	0.200000	0.000000	0.904000	0.000000	0.000000	-0.000000	-0.000000	-0.000000	0.000000	0.400000	0.000000	0.302000	0.000000	0.000000	-0.000000	
3.251000	-22.387632	515.360474	-15.944879	0.332859	0.000000	-0.152196	0.000003	-2.084979	-0.000000	-0.000000	-0.000000	0.000000	0.200000	0.000000	-1.504000	0.000000	0.000000	-0.000000	-0.000000	-0.000000	0.000000	0.200000	0.000000	-0.902000	0.000000	0.000000	-0.000000	-0.000000	-0.000000	0.000000	0.200000	0.000000	0.904000	0.000000	0.000000	-0.000000	-0.000000	-0.000000	0.000000	0.400000	0.000000	0.302000	0.000000	0.000000	-0.000000	
3.252000	-22.226761	514.723450	-15.299005	0.332463	0.000000	-0.151918	0.000009	-1.856525	0.000003	-0.000000	-0.000000	0.000000	0.200000	0.000000	-1.504000	0.000000	0.000000	-0.000000	-0.000000	-0.000000	0.000000	0.200000	0.000000	-0.902000	0.000000	0.000000	-0.000000	-0.000000	-0.000000	0.000000	0.200000	0.000000	0.904000	0.000000	0.000000	-0.000000	-0.000000	-0.000000	0.000000	0.400000	0.000000	0.302000	0.000000	0.000000	-0.000000	
3.253000	-21.744143	512.520142	-14.814942	0.334011	0.000000	-0.150392	0.000008	-1.936548	0.000012	-0.000000	-0.000000	0.000000	0.200000	0.000000	-1.504000	0.000000	0.000000	-0.000000	-0.000000	-0.000000	0.000000	0.200000	0.000000	-0.902000	0.000000	0.000000	-0.000000	-0.000000	-0.000000	0.000000	0.200000	0.000000	0.904000	0.000000	0.000000	-0.000000	-0.000000	-0.000000	0.000000	0.400000	0.000000	0.302000	0.000000	0.000000	-0.000000	
3.254000	-21.100649	511.881470	-15.137197	0.333277	0.000000	-0.150775	0.000001	-1.761428	0.000005	-0.000000	-0.000000	0.000000	0.200000	0.000000	-1.504000	0.000000	0.000000	-0.000000	-0.000000	-0.000000	0.000000	0.200000	0.000000	-0.902000	0.000000	0.000000	-0.000000	-0.000000	-0.000000	0.000000	0.200000	0.000000	0.904000	0.000000	0.000000	-0.000000	-0.000000	-0.000000	0.000000	0.400000	0.000000	0.302000	0.000000	0.000000	-0.000000	
3.255000	-20.618031	511.564240	-14.008622	0.333316	0.000000	-0.149849	0.000006	-1.884125	0.000013	-0.000000	-0.000000	0.000000	0.200000	0.000000	-1.504000	0.000000	0.000000	-0.000000	-0.000000	-0.000000	0.000000	0.200000	0.000000	-0.902000	0.000000	0.000000	-0.000000	-0.000000	-0.000000	0.000000	0.200000	0.000000	0.904000	0.000000	0.000000	-0.000000	-0.000000	-0.000000	0.000000	0.400000	0.000000	0.302000	0.000000	0.000000	-0.000000	
3.256000	-20.618032	510.618469	-14.169066	0.333762	0.000000	-0.149668	0.000008	-1.827755	0.000013	-0.000000	-0.000000	0.000000	0.200000	0.000000	-1.504000	0.000000	0.000000	-0.000000	-0.000000	-0.000000	0.000000	0.200000	0.000000	-0.902000	0.000000	0.000000	-0.000000	-0.000000	-0.000000	0.000000	0.200000	0.000000	0.904000	0.000000	0.000000	-0.000000	-0.000000	-0.000000	0.000000	0.400000	0.000000	0.302000	0.000000	0.000000	-0.000000	
3.257000	-20.296286	510.614197	-12.878341	0.333180	0.000000	-0.150096	-0.000004	-1.783262	0.000010	-0.000000	-0.000000	0.000000	0.200000	0.000000	-1.504000	0.000000	0.000000	-0.000000	-0.000000	-0.000000	0.000000	0.200000	0.000000	-0.902000	0.000000	0.000000	-0.000000	-0.000000	-0.000000	0.000000	0.200000	0.000000	0.904000	0.000000	0.000000	-0.000000	-0.000000	-0.000000	0.000000	0.400000	0.000000	0.302000	0.000000	0.000000	-0.000000	
3.258000	-19.813669	508.082611	-12.877659	0.333234	0.000000	-0.148088	0.000006	-1.640497	0.000013	-0.000000	-0.000000	0.000000	0.200000	0.000000	-1.504000	0.000000	0.000000	-0.000000	-0.000000	-0.000000	0.000000	0.200000	0.000000	-0.902000	0.000000	0.000000	-0.000000	-0.000000	-0.000000	0.000000	0.200000	0.000000	0.904000	0.000000	0.000000	-0.000000	-0.000000	-0.000000	0.000000	0.400000	0.000000	0.302000	0.000000	0.000000	-0.000000	
3.259000	-19.813667	510.293701	-12.231783	0.332343	0.000000	-0.148678	0.000005	-1.776947	0.000023	-0.000000	-0.000000	0.000000	0.200000	0.000000	-1.504000	0.000000	0.000000	-0.000000	-0.000000	-0.000000	0.000000	0.200000	0.000000	-0.902000	0.000000	0.000000	-0.000000	-0.000000	-0.000000	0.000000	0.200000	0.000000	0.904000	0.000000	0.000000	-0.000000	-0.000000	-0.000000	0.000000	0.400000	0.000000	0.302000	0.000000	0.000000	-0.000000	
3.260000	-19.331049	507.770569	-10.940718	0.334448	0.000000	-0.149560	-0.000000	-1.596244	0.000003	-0.000000	-0.000000	0.000000	0.200000	0.000000	-1.504000	0.000000	0.000000	-0.000000	-0.000000	-0.000000	0.000000	0.200000	0.000000	-0.902000	0.000000	0.000000	-0.000000	-0.000000	-0.000000	0.000000	0.200000	0.000000	0.904000	0.000000	0.000000	-0.000000	-0.000000	-0.000000	0.000000	0.400000	0.000000	0.302000	0.000000	0.000000	-0.000000	
3.261000	-19.652796	506.501373	-10.618120	0.333521	0.000000	-0.148257	0.000009	-1.787766	0.000002	-0.000000	-0.000000	0.000000	0.200000	0.000000	-1.504000	0.000000	0.000000	-0.000000	-0.000000	-0.000000	0.000000	0.200000	0.000000	-0.902000	0.000000	0.000000	-0.000000	-0.000000	-0.000000	0.000000	0.200000	0.000000	0.904000	0.000000	0.000000	-0.000000	-0.000000	-0.000000	0.000000	0.400000	0.000000	0.302000	0.000000	0.000000	-0.000000	
3.262000	-19.974539	507.449768	-11.263310	0.333018	0.000000	-0.148255	-0.000002	-1.627535	0.000007	-0.000000	-0.000000	0.000000	0.200000	0.000000	-1.504000	0.000000	0.000000	-0.000000	-0.000000	-0.000000	0.000000	0.200000	0.000000	-0.902000	0.000000	0.000000	-0.000000	-0.000000	-0.000000	0.000000	0.200000	0.000000	0.904000	0.000000	0.000000	-0.000000	-0.000000	-0.000000	0.000000	0.400000	0.000000	0.302000	0.000000	0.000000	-0.000000	
3.263000	-19.009304	505.235077	-10.456312	0.333639	0.000000	-0.148067	0.000003	-1.784721	0.000014	-0.000000	-0.000000	0.000000	0.200000	0.000000	-1.504000	0.000000	0.000000	-0.000000	-0.000000	-0.000000	0.000000	0.200000	0.000000	-0.902000	0.000000	0.000000	-0.000000	-0.000000	-0.000000	0.000000	0.200000	0.000000	0.904000	0.000000	0.000000	-0.000000	-0.000000	-0.000000	0.000000	0.400000	0.000000	0.302000	0.000000	0.000000	-0.000000	
3.264000	-19.009302	505.868896	-9.810436	0.333627	0.000000	-0.148224	0.000005	-1.661970	0.000017	-0.000000	-0.000000	0.000000	0.200000	0.000000	-1.504000	0.000000	0.000000	-0.000000	-0.000000	-0.000000	0.000000	0.200000	0.000000	-0.902000	0.000000	0.000000	-0.000000	-0.000000	-0.000000	0.000000	0.200000	0.000000	0.904000	0.000000	0.000000	-0.000000	-0.000000	-0.000000	0.000000	0.400000	0.000000	0.302000	0.000000	0.000000	-0.000000	
3.265000	-18.365812	503.968140	-9.649307	0.333536	0.000000	-0.147811	-0.000004	-1.549284	0.000020	-0.000000	-0.000000	0.000000	0.200000	0.000000	-1.504000	0.000000	0.000000	-0.000000	-0.000000	-0.000000	0.000000	0.200000	0.000000	-0.902000	0.000000	0.000000	-0.000000	-0.000000	-0.000000	0.000000	0.200000	0.000000	0.904000	0.000000	0.000000	-0.000000	-0.000000	-0.000000	0.000000	0.400000	0.000000	0.302000	0.000000	0.000000	-0.000000	
3.266000	-18.204939	503.338257	-9.164562	0.333991	0.000000	-0.147237	0.000008	-1.338085	0.000010	-0.000000	-0.000000	0.000000	0.200000	0.000000	-1.504000	0.000000	0.000000	-0.000000	-0.000000	-0.000000	0.000000	0.200000	0.000000	-0.902000	0.000000	0.000000	-0.000000	-0.000000	-0.000000	0.000000	0.200000	0.000000	0.904000	0.000000	0.000000	-0.000000	-0.000000	-0.000000	0.000000	0.400000	0.000000	0.302000	0.000000	0.000000	-0.000000	
3.267000	-17.722321	502.701172	-9.810093	0.333176	0.000000	-0.146528	-0.000005	-1.398102	0.000005	-0.000000	-0.000000	0.000000	0.200000	0.000000	-1.504000	0.000000	0.000000	-0.000000	-0.000000	-0.000000	0.000000	0.200000	0.000000	-0.902000	0.000000	0.000000	-0.000000	-0.000000	-0.000000	0.000000	0.200000	0.000000	0.904000	0.000000	0.000000	-0.000000	-0.000000	-0.000000	0.000000	0.400000	0.000000	0.302000	0.000000	0.000000	-0.000000	
3.268000	-17.400576	502.386292	-8.841965	0.333665	0.000000	-0.146437	0.000004	-1.436077	-0.000002	-0.000000	-0.000000	0.000000	0.200000	0.000000	-1.504000	0.000000	0.000000	-0.000000	-0.000000	-0.000000	0.000000	0.200000	0.000000	-0.902000	0.000000	0.000000	-0.000000	-0.000000	-0.000000	0.000000	0.200000	0.000000	0.904000	0.000000	0.000000	-0.000000	-0.000000	-0.000000	0.000000	0.400000	0.000000	0.302000	0.000000	0.000000	-0.000000	
3.269000	-17.239702	502.070007	-8.358242	0.333665	0.000000	-0.145554	-0.000001	-1.414024	-0.000001	-0.000000	-0.000000	0.000000	0.200000	0.000000	-1.504000	0.000000	0.000000	-0.000000	-0.000000	-0.000000	0.000000	0.200000	0.000000	-0.902000	0.000000	0.000000	-0.000000	-0.000000	-0.000000	0.000000	0.200000	0.000000	0.904000	0.000000	0.000000	-0.000000	-0.000000	-0.000000	0.000000	0.400000	0.000000	0.302000	0.000000	0.000000	-0.000000	
3.270000	-16.596212	501.752502	-8.196089	0.333587	0.000000	-0.146708	0.000006	-1.349703	0.000011	-0.000000	-0.000000	0.000000	0.200000	0.000000	-1.504000	0.000000	0.000000	-0.000000	-0.000000	-0.000000	0.000000	0.200000	0.000000	-0.902000	0.000000	0.000000	-0.000000	-0.000000	-0.000000	0.000000	0.200000	0.000000	0.904000	0.000000	0.000000	-0.000000	-0.000000	-0.000000	0.000000	0.400000	0.000000	0.302000	0.000000	0.000000	-0.000000	
3.271000	-16.596212	501.752808	-8.033937	0.333565	0.000000	-0.146120	0.000005	-1.091455	0.000006	-0.000000	-0.000000	0.000000	0.200000	0.000000	-1.504000	0.000000	0.000000	-0.000000	-0.000000	-0.000000	0.000000	0.200000	0.000000	-0.902000	0.000000	0.000000	-0.000000	-0.000000	-0.000000	0.000000	0.200000	0.000000	0.904000	0.000000	0.000000	-0.000000	-0.000000	-0.000000	0.000000	0.400000	0.000000	0.302000	0.000000	0.000000	-0.000000	
